<svg viewBox="0 0 900 460" xmlns="http://www.w3.org/2000/svg" role="img" aria-labelledby="title desc">
  <title id="title">Hand hygiene quick protocol</title>
  <desc id="desc">Three illustrated steps for applying hand sanitiser.</desc>
  <defs>
    <linearGradient id="panel" x1="0" y1="0" x2="1" y2="1">
      <stop offset="0%" stop-color="#f8fffd"/>
      <stop offset="100%" stop-color="#ecf8f5"/>
    </linearGradient>
  </defs>
  <rect width="900" height="460" rx="28" fill="url(#panel)"/>
  <rect x="10" y="10" width="880" height="440" rx="22" fill="none" stroke="#80cfc0" stroke-width="10"/>

  <g transform="translate(62,58)">
    <circle cx="95" cy="150" r="92" fill="none" stroke="#80cfc0" stroke-width="5"/>
    <path d="M70 188 C72 150 82 128 100 130 C118 132 128 154 127 184" fill="none" stroke="#79818a" stroke-width="6" stroke-linecap="round"/>
    <path d="M118 102 L118 64" stroke="#7a828d" stroke-width="7" stroke-linecap="round"/>
    <rect x="86" y="40" width="64" height="28" rx="4" fill="#d9e2ea" stroke="#7a828d"/>
    <path d="M100 134 L84 166 M126 138 L138 168 M84 122 L62 132 M142 124 L160 136" stroke="#7fd3c1" stroke-width="5" stroke-linecap="round"/>
    <text x="95" y="286" text-anchor="middle" font-size="26" font-family="Barlow, Arial, sans-serif" font-weight="700" fill="#475569">Spray</text>
  </g>

  <g transform="translate(308,58)">
    <circle cx="145" cy="150" r="92" fill="none" stroke="#80cfc0" stroke-width="5"/>
    <path d="M106 178 C116 132 138 110 162 112 C186 114 198 142 192 188" fill="none" stroke="#79818a" stroke-width="6" stroke-linecap="round"/>
    <path d="M128 164 C144 144 164 138 185 142" fill="none" stroke="#79818a" stroke-width="5" stroke-linecap="round"/>
    <line x1="78" y1="68" x2="216" y2="232" stroke="#80cfc0" stroke-width="5"/>
    <text x="145" y="286" text-anchor="middle" font-size="26" font-family="Barlow, Arial, sans-serif" font-weight="700" fill="#475569">Rub</text>
  </g>

  <g transform="translate(566,58)">
    <circle cx="145" cy="150" r="92" fill="none" stroke="#80cfc0" stroke-width="5"/>
    <path d="M100 184 C114 154 144 142 182 146" fill="none" stroke="#79818a" stroke-width="6" stroke-linecap="round"/>
    <path d="M96 150 C124 120 170 120 198 150" fill="none" stroke="#79818a" stroke-width="5" stroke-linecap="round"/>
    <line x1="72" y1="64" x2="218" y2="236" stroke="#80cfc0" stroke-width="5"/>
    <text x="145" y="286" text-anchor="middle" font-size="26" font-family="Barlow, Arial, sans-serif" font-weight="700" fill="#475569">Dry</text>
  </g>
</svg>
