<svg viewBox="0 0 1000 620" xmlns="http://www.w3.org/2000/svg" role="img" aria-labelledby="title desc">
  <title id="title">Retractable Reel and Clip for 50ml Spray Bottle</title>
  <desc id="desc">A Sani-Hands 50ml spray bottle attached to a retractable reel and clip accessory.</desc>
  <defs>
    <linearGradient id="bg" x1="0" y1="0" x2="1" y2="1">
      <stop offset="0%" stop-color="#f8fafc"/>
      <stop offset="100%" stop-color="#dbe5f0"/>
    </linearGradient>
    <linearGradient id="bottleBody" x1="0" y1="0" x2="0" y2="1">
      <stop offset="0%" stop-color="#ffffff"/>
      <stop offset="100%" stop-color="#edf2f7"/>
    </linearGradient>
    <linearGradient id="nozzle" x1="0" y1="0" x2="0" y2="1">
      <stop offset="0%" stop-color="#f8fafc"/>
      <stop offset="100%" stop-color="#d8e0ea"/>
    </linearGradient>
  </defs>

  <rect width="1000" height="620" fill="url(#bg)"/>
  <rect y="522" width="1000" height="98" fill="#d3deea" opacity="0.45"/>

  <g transform="translate(540,185)">
    <circle cx="0" cy="150" r="125" fill="#eef2f7" stroke="#c9d5e2" stroke-width="8"/>
    <circle cx="0" cy="150" r="88" fill="#ffffff" stroke="#d7e0ea" stroke-width="6"/>
    <circle cx="0" cy="150" r="44" fill="#cf271f" opacity="0.88"/>
    <path d="M0 44 C-18 78 -18 106 0 132" fill="none" stroke="#0284c7" stroke-width="8" stroke-linecap="round"/>
    <path d="M0 44 C18 78 18 106 0 132" fill="none" stroke="#0284c7" stroke-width="8" stroke-linecap="round"/>
    <text x="0" y="158" text-anchor="middle" font-size="20" font-family="Barlow, Arial, sans-serif" font-weight="800" fill="#fff">PN</text>
  </g>

  <path d="M420 318 C505 286 560 300 632 334" fill="none" stroke="#0284c7" stroke-width="10" stroke-linecap="round"/>

  <g transform="translate(220,84)">
    <rect x="90" y="0" width="124" height="132" rx="24" fill="url(#nozzle)" stroke="#c9d5e2" stroke-width="3"/>
    <rect x="106" y="118" width="92" height="46" rx="16" fill="url(#nozzle)" stroke="#c9d5e2" stroke-width="3"/>

    <rect x="112" y="154" width="80" height="360" rx="34" fill="url(#bottleBody)" stroke="#dde5ee" stroke-width="4"/>
    <rect x="124" y="252" width="56" height="168" rx="14" fill="#fff" stroke="#edf2f7"/>

    <text x="152" y="308" text-anchor="middle" font-size="22" font-family="Barlow, Arial, sans-serif" font-weight="800" fill="#cf271f">SANI</text>
    <text x="152" y="334" text-anchor="middle" font-size="22" font-family="Barlow, Arial, sans-serif" font-weight="800" fill="#cf271f">HANDS</text>

    <rect x="130" y="352" width="44" height="3" fill="#cf271f" opacity="0.5"/>
    <text x="152" y="435" text-anchor="middle" font-size="15" font-family="Barlow, Arial, sans-serif" font-weight="700" fill="#475569">50ml</text>

    <circle cx="216" cy="196" r="20" fill="#f1f5f9" stroke="#d5dee8" stroke-width="3"/>
    <path d="M231 208 C264 236 288 248 320 258" fill="none" stroke="#0284c7" stroke-width="6" stroke-linecap="round"/>
  </g>

  <g transform="translate(735,312)">
    <rect x="0" y="0" width="132" height="54" rx="12" fill="#1f2430"/>
    <rect x="94" y="46" width="20" height="66" rx="10" fill="#1f2430"/>
    <rect x="68" y="102" width="70" height="18" rx="8" fill="#1f2430"/>
  </g>
</svg>
