<svg width="1200" height="820" viewBox="0 0 1200 820" fill="none" xmlns="http://www.w3.org/2000/svg">
  <rect width="1200" height="820" fill="#F8FAFC"/>
  <rect x="36" y="36" width="1128" height="748" rx="28" fill="#FFFFFF"/>
  <rect x="70" y="78" width="500" height="664" rx="22" fill="#F8FAFC"/>
  <rect x="630" y="78" width="500" height="664" rx="22" fill="#F8FAFC"/>
  <rect x="142" y="118" width="354" height="564" rx="22" fill="#1F2430"/>
  <path d="M186 148H452L438 620H200L186 148Z" fill="url(#soapBag)"/>
  <circle cx="305" cy="274" r="18" fill="#D9D39A" opacity="0.55"/>
  <circle cx="340" cy="322" r="12" fill="#E8E3B8" opacity="0.55"/>
  <circle cx="255" cy="356" r="10" fill="#E8E3B8" opacity="0.4"/>
  <rect x="212" y="260" width="258" height="146" rx="14" fill="#FFFFFF"/>
  <text x="226" y="292" fill="#1F2937" font-family="Arial, sans-serif" font-size="26" font-weight="700">1 Litre Sani-Hands Anti-Bacterial Soap Refill Bag</text>
  <text x="226" y="328" fill="#334155" font-family="Arial, sans-serif" font-size="18">Manufactured by PN Medical (Pty) Ltd</text>
  <text x="226" y="354" fill="#334155" font-family="Arial, sans-serif" font-size="18">Fragrant soap with Rooibos extract</text>
  <text x="226" y="380" fill="#CF271F" font-family="Arial, sans-serif" font-size="18" font-weight="700">WARNING</text>
  <text x="226" y="404" fill="#475569" font-family="Arial, sans-serif" font-size="16">For external use. Avoid eyes. Keep away from children.</text>
  <rect x="744" y="126" width="264" height="260" rx="18" fill="#1F2430"/>
  <path d="M784 148H966L954 352H796L784 148Z" fill="url(#soapBag)"/>
  <circle cx="878" cy="248" r="18" fill="#D9D39A" opacity="0.45"/>
  <rect x="752" y="398" width="252" height="248" rx="16" fill="#2E3135"/>
  <rect x="790" y="470" width="176" height="138" rx="10" fill="#12161C"/>
  <rect x="872" y="406" width="12" height="96" rx="6" fill="#D6D048"/>
  <text x="878" y="730" text-anchor="middle" fill="#475569" font-family="Arial, sans-serif" font-size="24">Mounted anti-bacterial soap system</text>
  <text x="320" y="730" text-anchor="middle" fill="#475569" font-family="Arial, sans-serif" font-size="24">Soap refill bag label detail</text>
  <defs>
    <linearGradient id="soapBag" x1="319" y1="148" x2="319" y2="620" gradientUnits="userSpaceOnUse">
      <stop stop-color="#6B6B35"/>
      <stop offset="1" stop-color="#B0A764"/>
    </linearGradient>
  </defs>
</svg>