<svg xmlns="http://www.w3.org/2000/svg" viewBox="0 0 320 320" width="320" height="320">
  <defs>
    <linearGradient id="iconLeft" x1="0%" y1="0%" x2="100%" y2="60%">
      <stop offset="0%" stop-color="#122c54"/>
      <stop offset="55%" stop-color="#1f5ea8"/>
      <stop offset="100%" stop-color="#33aee6"/>
    </linearGradient>
    <linearGradient id="iconRight" x1="0%" y1="40%" x2="100%" y2="100%">
      <stop offset="0%" stop-color="#e2461c"/>
      <stop offset="55%" stop-color="#f47b20"/>
      <stop offset="100%" stop-color="#ffcb05"/>
    </linearGradient></defs>
  
  <g transform="translate(160,160) scale(1.05)">
    <path d="M 12.021,-12.021 L 11.693,-12.349 L 11.365,-12.677 L 11.035,-13.006 L 10.705,-13.336 L 10.374,-13.667 L 10.042,-13.998 L 9.709,-14.330 L 9.376,-14.662 L 9.041,-14.996 L 8.705,-15.330 L 8.368,-15.664 L 8.030,-15.999 L 7.691,-16.335 L 7.350,-16.672 L 7.009,-17.008 L 6.666,-17.346 L 6.322,-17.684 L 5.977,-18.022 L 5.630,-18.361 L 5.282,-18.701 L 4.933,-19.041 L 4.582,-19.381 L 4.230,-19.722 L 3.877,-20.063 L 3.522,-20.405 L 3.165,-20.747 L 2.807,-21.089 L 2.447,-21.432 L 2.085,-21.775 L 1.722,-22.118 L 1.357,-22.462 L 0.991,-22.806 L 0.622,-23.150 L 0.252,-23.494 L -0.120,-23.838 L -0.494,-24.183 L -0.870,-24.528 L -1.248,-24.873 L -1.628,-25.218 L -2.010,-25.563 L -2.394,-25.908 L -2.780,-26.253 L -3.168,-26.598 L -3.558,-26.943 L -3.951,-27.288 L -4.346,-27.633 L -4.743,-27.977 L -5.143,-28.322 L -5.544,-28.666 L -5.949,-29.011 L -6.355,-29.355 L -6.765,-29.698 L -7.176,-30.042 L -7.591,-30.385 L -8.008,-30.727 L -8.427,-31.069 L -8.849,-31.411 L -9.274,-31.753 L -9.702,-32.093 L -10.133,-32.434 L -10.566,-32.773 L -11.002,-33.112 L -11.441,-33.450 L -11.883,-33.788 L -12.329,-34.125 L -12.777,-34.461 L -13.228,-34.796 L -13.682,-35.130 L -14.140,-35.464 L -14.601,-35.796 L -15.065,-36.127 L -15.532,-36.457 L -16.002,-36.786 L -16.476,-37.114 L -16.954,-37.441 L -17.434,-37.766 L -17.919,-38.090 L -18.406,-38.412 L -18.898,-38.733 L -19.393,-39.053 L -19.891,-39.370 L -20.393,-39.687 L -20.899,-40.001 L -21.409,-40.314 L -21.922,-40.624 L -22.440,-40.933 L -22.961,-41.240 L -23.486,-41.545 L -24.015,-41.847 L -24.547,-42.148 L -25.084,-42.446 L -25.625,-42.742 L -26.170,-43.035 L -26.719,-43.326 L -27.272,-43.614 L -27.830,-43.899 L -28.391,-44.182 L -28.957,-44.462 L -29.527,-44.739 L -30.101,-45.012 L -30.680,-45.283 L -31.263,-45.550 L -31.850,-45.814 L -32.442,-46.075 L -33.038,-46.332 L -33.638,-46.586 L -34.243,-46.835 L -34.852,-47.081 L -35.466,-47.323 L -36.084,-47.561 L -36.707,-47.795 L -37.334,-48.024 L -37.965,-48.249 L -38.602,-48.470 L -39.242,-48.686 L -39.888,-48.897 L -40.537,-49.103 L -41.192,-49.305 L -41.851,-49.501 L -42.514,-49.692 L -43.182,-49.877 L -43.854,-50.057 L -44.531,-50.232 L -45.213,-50.400 L -45.898,-50.563 L -46.589,-50.720 L -47.283,-50.870 L -47.983,-51.014 L -48.686,-51.152 L -49.394,-51.283 L -50.106,-51.407 L -50.822,-51.525 L -51.543,-51.635 L -52.267,-51.738 L -52.996,-51.834 L -53.729,-51.922 L -54.466,-52.002 L -55.207,-52.075 L -55.952,-52.140 L -56.700,-52.196 L -57.453,-52.245 L -58.209,-52.284 L -58.968,-52.315 L -59.731,-52.338 L -60.498,-52.351 L -61.267,-52.355 L -62.040,-52.350 L -62.816,-52.336 L -63.595,-52.312 L -64.377,-52.278 L -65.162,-52.234 L -65.949,-52.180 L -66.739,-52.116 L -67.531,-52.042 L -68.325,-51.956 L -69.121,-51.861 L -69.919,-51.754 L -70.719,-51.636 L -71.521,-51.507 L -72.324,-51.367 L -73.128,-51.215 L -73.933,-51.051 L -74.739,-50.876 L -75.545,-50.689 L -76.352,-50.489 L -77.159,-50.278 L -77.967,-50.054 L -78.774,-49.817 L -79.580,-49.568 L -80.386,-49.306 L -81.191,-49.031 L -81.995,-48.744 L -82.797,-48.443 L -83.598,-48.129 L -84.396,-47.801 L -85.193,-47.461 L -85.987,-47.106 L -86.778,-46.739 L -87.567,-46.357 L -88.351,-45.962 L -89.133,-45.553 L -89.910,-45.130 L -90.683,-44.694 L -91.451,-44.243 L -92.215,-43.778 L -92.973,-43.300 L -93.726,-42.807 L -94.473,-42.301 L -95.213,-41.780 L -95.948,-41.246 L -96.675,-40.697 L -97.395,-40.135 L -98.107,-39.558 L -98.812,-38.968 L -99.508,-38.364 L -100.196,-37.746 L -100.875,-37.114 L -101.544,-36.469 L -102.204,-35.811 L -102.853,-35.139 L -103.493,-34.454 L -104.121,-33.756 L -104.739,-33.045 L -105.345,-32.321 L -105.939,-31.585 L -106.521,-30.836 L -107.091,-30.075 L -107.647,-29.302 L -108.191,-28.517 L -108.721,-27.720 L -109.237,-26.913 L -109.740,-26.094 L -110.227,-25.264 L -110.700,-24.424 L -111.158,-23.573 L -111.601,-22.713 L -112.027,-21.843 L -112.438,-20.963 L -112.833,-20.075 L -113.211,-19.177 L -113.573,-18.272 L -113.917,-17.358 L -114.244,-16.437 L -114.554,-15.509 L -114.846,-14.573 L -115.121,-13.632 L -115.377,-12.684 L -115.615,-11.730 L -115.835,-10.772 L -116.036,-9.808 L -116.218,-8.840 L -116.381,-7.868 L -116.526,-6.892 L -116.651,-5.913 L -116.758,-4.932 L -116.845,-3.948 L -116.913,-2.963 L -116.961,-1.976 L -116.990,-0.988 L -117.000,-0.000 L -116.990,0.988 L -116.961,1.976 L -116.913,2.963 L -116.845,3.948 L -116.758,4.932 L -116.651,5.913 L -116.526,6.892 L -116.381,7.868 L -116.218,8.840 L -116.036,9.808 L -115.835,10.772 L -115.615,11.730 L -115.377,12.684 L -115.121,13.632 L -114.846,14.573 L -114.554,15.509 L -114.244,16.437 L -113.917,17.358 L -113.573,18.272 L -113.211,19.177 L -112.833,20.075 L -112.438,20.963 L -112.027,21.843 L -111.601,22.713 L -111.158,23.573 L -110.700,24.424 L -110.227,25.264 L -109.740,26.094 L -109.237,26.913 L -108.721,27.720 L -108.191,28.517 L -107.647,29.302 L -107.091,30.075 L -106.521,30.836 L -105.939,31.585 L -105.345,32.321 L -104.739,33.045 L -104.121,33.756 L -103.493,34.454 L -102.853,35.139 L -102.204,35.811 L -101.544,36.469 L -100.875,37.114 L -100.196,37.746 L -99.508,38.364 L -98.812,38.968 L -98.107,39.558 L -97.395,40.135 L -96.675,40.697 L -95.948,41.246 L -95.213,41.780 L -94.473,42.301 L -93.726,42.807 L -92.973,43.300 L -92.215,43.778 L -91.451,44.243 L -90.683,44.694 L -89.910,45.130 L -89.133,45.553 L -88.351,45.962 L -87.567,46.357 L -86.778,46.739 L -85.987,47.106 L -85.193,47.461 L -84.396,47.801 L -83.598,48.129 L -82.797,48.443 L -81.995,48.744 L -81.191,49.031 L -80.386,49.306 L -79.580,49.568 L -78.774,49.817 L -77.967,50.054 L -77.159,50.278 L -76.352,50.489 L -75.545,50.689 L -74.739,50.876 L -73.933,51.051 L -73.128,51.215 L -72.324,51.367 L -71.521,51.507 L -70.719,51.636 L -69.919,51.754 L -69.121,51.861 L -68.325,51.956 L -67.531,52.042 L -66.739,52.116 L -65.949,52.180 L -65.162,52.234 L -64.377,52.278 L -63.595,52.312 L -62.816,52.336 L -62.040,52.350 L -61.267,52.355 L -60.498,52.351 L -59.731,52.338 L -58.968,52.315 L -58.209,52.284 L -57.453,52.245 L -56.700,52.196 L -55.952,52.140 L -55.207,52.075 L -54.466,52.002 L -53.729,51.922 L -52.996,51.834 L -52.267,51.738 L -51.543,51.635 L -50.822,51.525 L -50.106,51.407 L -49.394,51.283 L -48.686,51.152 L -47.983,51.014 L -47.283,50.870 L -46.589,50.720 L -45.898,50.563 L -45.213,50.400 L -44.531,50.232 L -43.854,50.057 L -43.182,49.877 L -42.514,49.692 L -41.851,49.501 L -41.192,49.305 L -40.537,49.103 L -39.888,48.897 L -39.242,48.686 L -38.602,48.470 L -37.965,48.249 L -37.334,48.024 L -36.707,47.795 L -36.084,47.561 L -35.466,47.323 L -34.852,47.081 L -34.243,46.835 L -33.638,46.586 L -33.038,46.332 L -32.442,46.075 L -31.850,45.814 L -31.263,45.550 L -30.680,45.283 L -30.101,45.012 L -29.527,44.739 L -28.957,44.462 L -28.391,44.182 L -27.830,43.899 L -27.272,43.614 L -26.719,43.326 L -26.170,43.035 L -25.625,42.742 L -25.084,42.446 L -24.547,42.148 L -24.015,41.847 L -23.486,41.545 L -22.961,41.240 L -22.440,40.933 L -21.922,40.624 L -21.409,40.314 L -20.899,40.001 L -20.393,39.687 L -19.891,39.370 L -19.393,39.053 L -18.898,38.733 L -18.406,38.412 L -17.919,38.090 L -17.434,37.766 L -16.954,37.441 L -16.476,37.114 L -16.002,36.786 L -15.532,36.457 L -15.065,36.127 L -14.601,35.796 L -14.140,35.464 L -13.682,35.130 L -13.228,34.796 L -12.777,34.461 L -12.329,34.125 L -11.883,33.788 L -11.441,33.450 L -11.002,33.112 L -10.566,32.773 L -10.133,32.434 L -9.702,32.093 L -9.274,31.753 L -8.849,31.411 L -8.427,31.069 L -8.008,30.727 L -7.591,30.385 L -7.176,30.042 L -6.765,29.698 L -6.355,29.355 L -5.949,29.011 L -5.544,28.666 L -5.143,28.322 L -4.743,27.977 L -4.346,27.633 L -3.951,27.288 L -3.558,26.943 L -3.168,26.598 L -2.780,26.253 L -2.394,25.908 L -2.010,25.563 L -1.628,25.218 L -1.248,24.873 L -0.870,24.528 L -0.494,24.183 L -0.120,23.838 L 0.252,23.494 L 0.622,23.150 L 0.991,22.806 L 1.357,22.462 L 1.722,22.118 L 2.085,21.775 L 2.447,21.432 L 2.807,21.089 L 3.165,20.747 L 3.522,20.405 L 3.877,20.063 L 4.230,19.722 L 4.582,19.381 L 4.933,19.041 L 5.282,18.701 L 5.630,18.361 L 5.977,18.022 L 6.322,17.684 L 6.666,17.346 L 7.009,17.008 L 7.350,16.672 L 7.691,16.335 L 8.030,15.999 L 8.368,15.664 L 8.705,15.330 L 9.041,14.996 L 9.376,14.662 L 9.709,14.330 L 10.042,13.998 L 10.374,13.667 L 10.705,13.336 L 11.035,13.006 L 11.365,12.677 L 11.693,12.349 L 12.021,12.021 L -12.021,-12.021 L -12.348,-11.694 L -12.674,-11.368 L -12.999,-11.043 L -13.324,-10.718 L -13.648,-10.395 L -13.971,-10.072 L -14.294,-9.750 L -14.616,-9.429 L -14.938,-9.109 L -15.259,-8.789 L -15.580,-8.471 L -15.900,-8.154 L -16.220,-7.837 L -16.539,-7.521 L -16.858,-7.207 L -17.176,-6.893 L -17.495,-6.581 L -17.812,-6.269 L -18.130,-5.958 L -18.447,-5.649 L -18.764,-5.340 L -19.081,-5.033 L -19.397,-4.726 L -19.714,-4.421 L -20.030,-4.117 L -20.346,-3.814 L -20.662,-3.512 L -20.978,-3.211 L -21.294,-2.911 L -21.610,-2.613 L -21.925,-2.316 L -22.241,-2.020 L -22.557,-1.725 L -22.873,-1.431 L -23.188,-1.139 L -23.504,-0.848 L -23.820,-0.558 L -24.136,-0.269 L -24.453,0.018 L -24.769,0.304 L -25.086,0.588 L -25.403,0.871 L -25.720,1.153 L -26.037,1.434 L -26.354,1.713 L -26.672,1.990 L -26.990,2.266 L -27.309,2.541 L -27.627,2.814 L -27.946,3.086 L -28.266,3.356 L -28.586,3.624 L -28.906,3.891 L -29.226,4.157 L -29.547,4.421 L -29.869,4.683 L -30.191,4.943 L -30.513,5.202 L -30.836,5.460 L -31.159,5.715 L -31.483,5.969 L -31.808,6.221 L -32.133,6.471 L -32.458,6.720 L -32.784,6.967 L -33.111,7.212 L -33.438,7.455 L -33.766,7.696 L -34.094,7.935 L -34.423,8.172 L -34.753,8.408 L -35.083,8.641 L -35.414,8.873 L -35.746,9.102 L -36.078,9.329 L -36.411,9.555 L -36.745,9.778 L -37.079,9.999 L -37.415,10.218 L -37.750,10.435 L -38.087,10.649 L -38.424,10.861 L -38.762,11.071 L -39.101,11.279 L -39.440,11.485 L -39.780,11.688 L -40.121,11.889 L -40.463,12.087 L -40.805,12.283 L -41.148,12.476 L -41.492,12.667 L -41.837,12.856 L -42.182,13.041 L -42.528,13.225 L -42.875,13.405 L -43.223,13.583 L -43.571,13.759 L -43.920,13.931 L -44.270,14.101 L -44.620,14.268 L -44.972,14.433 L -45.324,14.594 L -45.676,14.753 L -46.030,14.908 L -46.384,15.061 L -46.738,15.211 L -47.094,15.358 L -47.450,15.501 L -47.806,15.642 L -48.163,15.779 L -48.521,15.914 L -48.880,16.045 L -49.239,16.173 L -49.598,16.297 L -49.959,16.419 L -50.319,16.537 L -50.680,16.651 L -51.042,16.763 L -51.404,16.871 L -51.767,16.975 L -52.130,17.076 L -52.493,17.173 L -52.857,17.267 L -53.221,17.357 L -53.586,17.443 L -53.950,17.526 L -54.315,17.605 L -54.681,17.681 L -55.046,17.752 L -55.411,17.820 L -55.777,17.884 L -56.143,17.944 L -56.509,18.000 L -56.875,18.052 L -57.240,18.100 L -57.606,18.144 L -57.972,18.184 L -58.337,18.220 L -58.703,18.251 L -59.068,18.279 L -59.433,18.302 L -59.797,18.321 L -60.161,18.336 L -60.525,18.347 L -60.888,18.353 L -61.251,18.355 L -61.613,18.353 L -61.974,18.346 L -62.335,18.335 L -62.695,18.320 L -63.054,18.300 L -63.412,18.275 L -63.770,18.246 L -64.126,18.212 L -64.482,18.174 L -64.836,18.132 L -65.189,18.085 L -65.541,18.033 L -65.891,17.976 L -66.240,17.915 L -66.588,17.850 L -66.934,17.779 L -67.279,17.704 L -67.622,17.625 L -67.963,17.540 L -68.302,17.452 L -68.640,17.358 L -68.976,17.260 L -69.309,17.157 L -69.640,17.049 L -69.970,16.936 L -70.297,16.819 L -70.621,16.698 L -70.944,16.571 L -71.263,16.440 L -71.580,16.305 L -71.895,16.164 L -72.206,16.020 L -72.515,15.870 L -72.821,15.716 L -73.124,15.557 L -73.424,15.394 L -73.721,15.227 L -74.015,15.055 L -74.305,14.878 L -74.592,14.697 L -74.875,14.512 L -75.155,14.322 L -75.431,14.128 L -75.703,13.930 L -75.972,13.727 L -76.236,13.520 L -76.497,13.310 L -76.753,13.095 L -77.006,12.876 L -77.254,12.653 L -77.498,12.426 L -77.738,12.195 L -77.973,11.960 L -78.203,11.722 L -78.429,11.480 L -78.651,11.234 L -78.867,10.984 L -79.079,10.732 L -79.286,10.475 L -79.488,10.216 L -79.684,9.953 L -79.876,9.686 L -80.063,9.417 L -80.244,9.145 L -80.420,8.869 L -80.591,8.591 L -80.756,8.310 L -80.916,8.026 L -81.070,7.740 L -81.218,7.451 L -81.361,7.159 L -81.499,6.865 L -81.630,6.569 L -81.756,6.271 L -81.876,5.971 L -81.990,5.668 L -82.098,5.364 L -82.200,5.058 L -82.296,4.750 L -82.387,4.441 L -82.471,4.130 L -82.549,3.817 L -82.620,3.504 L -82.686,3.189 L -82.746,2.873 L -82.799,2.556 L -82.846,2.239 L -82.887,1.920 L -82.921,1.601 L -82.950,1.282 L -82.972,0.962 L -82.987,0.641 L -82.997,0.321 L -83.000,-0.000 L -82.997,-0.321 L -82.987,-0.641 L -82.972,-0.962 L -82.950,-1.282 L -82.921,-1.601 L -82.887,-1.920 L -82.846,-2.239 L -82.799,-2.556 L -82.746,-2.873 L -82.686,-3.189 L -82.620,-3.504 L -82.549,-3.817 L -82.471,-4.130 L -82.387,-4.441 L -82.296,-4.750 L -82.200,-5.058 L -82.098,-5.364 L -81.990,-5.668 L -81.876,-5.971 L -81.756,-6.271 L -81.630,-6.569 L -81.499,-6.865 L -81.361,-7.159 L -81.218,-7.451 L -81.070,-7.740 L -80.916,-8.026 L -80.756,-8.310 L -80.591,-8.591 L -80.420,-8.869 L -80.244,-9.145 L -80.063,-9.417 L -79.876,-9.686 L -79.684,-9.953 L -79.488,-10.216 L -79.286,-10.475 L -79.079,-10.732 L -78.867,-10.984 L -78.651,-11.234 L -78.429,-11.480 L -78.203,-11.722 L -77.973,-11.960 L -77.738,-12.195 L -77.498,-12.426 L -77.254,-12.653 L -77.006,-12.876 L -76.753,-13.095 L -76.497,-13.310 L -76.236,-13.520 L -75.972,-13.727 L -75.703,-13.930 L -75.431,-14.128 L -75.155,-14.322 L -74.875,-14.512 L -74.592,-14.697 L -74.305,-14.878 L -74.015,-15.055 L -73.721,-15.227 L -73.424,-15.394 L -73.124,-15.557 L -72.821,-15.716 L -72.515,-15.870 L -72.206,-16.020 L -71.895,-16.164 L -71.580,-16.305 L -71.263,-16.440 L -70.944,-16.571 L -70.621,-16.698 L -70.297,-16.819 L -69.970,-16.936 L -69.640,-17.049 L -69.309,-17.157 L -68.976,-17.260 L -68.640,-17.358 L -68.302,-17.452 L -67.963,-17.540 L -67.622,-17.625 L -67.279,-17.704 L -66.934,-17.779 L -66.588,-17.850 L -66.240,-17.915 L -65.891,-17.976 L -65.541,-18.033 L -65.189,-18.085 L -64.836,-18.132 L -64.482,-18.174 L -64.126,-18.212 L -63.770,-18.246 L -63.412,-18.275 L -63.054,-18.300 L -62.695,-18.320 L -62.335,-18.335 L -61.974,-18.346 L -61.613,-18.353 L -61.251,-18.355 L -60.888,-18.353 L -60.525,-18.347 L -60.161,-18.336 L -59.797,-18.321 L -59.433,-18.302 L -59.068,-18.279 L -58.703,-18.251 L -58.337,-18.220 L -57.972,-18.184 L -57.606,-18.144 L -57.240,-18.100 L -56.875,-18.052 L -56.509,-18.000 L -56.143,-17.944 L -55.777,-17.884 L -55.411,-17.820 L -55.046,-17.752 L -54.681,-17.681 L -54.315,-17.605 L -53.950,-17.526 L -53.586,-17.443 L -53.221,-17.357 L -52.857,-17.267 L -52.493,-17.173 L -52.130,-17.076 L -51.767,-16.975 L -51.404,-16.871 L -51.042,-16.763 L -50.680,-16.651 L -50.319,-16.537 L -49.959,-16.419 L -49.598,-16.297 L -49.239,-16.173 L -48.880,-16.045 L -48.521,-15.914 L -48.163,-15.779 L -47.806,-15.642 L -47.450,-15.501 L -47.094,-15.358 L -46.738,-15.211 L -46.384,-15.061 L -46.030,-14.908 L -45.676,-14.753 L -45.324,-14.594 L -44.972,-14.433 L -44.620,-14.268 L -44.270,-14.101 L -43.920,-13.931 L -43.571,-13.759 L -43.223,-13.583 L -42.875,-13.405 L -42.528,-13.225 L -42.182,-13.041 L -41.837,-12.856 L -41.492,-12.667 L -41.148,-12.476 L -40.805,-12.283 L -40.463,-12.087 L -40.121,-11.889 L -39.780,-11.688 L -39.440,-11.485 L -39.101,-11.279 L -38.762,-11.071 L -38.424,-10.861 L -38.087,-10.649 L -37.750,-10.435 L -37.415,-10.218 L -37.079,-9.999 L -36.745,-9.778 L -36.411,-9.555 L -36.078,-9.329 L -35.746,-9.102 L -35.414,-8.873 L -35.083,-8.641 L -34.753,-8.408 L -34.423,-8.172 L -34.094,-7.935 L -33.766,-7.696 L -33.438,-7.455 L -33.111,-7.212 L -32.784,-6.967 L -32.458,-6.720 L -32.133,-6.471 L -31.808,-6.221 L -31.483,-5.969 L -31.159,-5.715 L -30.836,-5.460 L -30.513,-5.202 L -30.191,-4.943 L -29.869,-4.683 L -29.547,-4.421 L -29.226,-4.157 L -28.906,-3.891 L -28.586,-3.624 L -28.266,-3.356 L -27.946,-3.086 L -27.627,-2.814 L -27.309,-2.541 L -26.990,-2.266 L -26.672,-1.990 L -26.354,-1.713 L -26.037,-1.434 L -25.720,-1.153 L -25.403,-0.871 L -25.086,-0.588 L -24.769,-0.304 L -24.453,-0.018 L -24.136,0.269 L -23.820,0.558 L -23.504,0.848 L -23.188,1.139 L -22.873,1.431 L -22.557,1.725 L -22.241,2.020 L -21.925,2.316 L -21.610,2.613 L -21.294,2.911 L -20.978,3.211 L -20.662,3.512 L -20.346,3.814 L -20.030,4.117 L -19.714,4.421 L -19.397,4.726 L -19.081,5.033 L -18.764,5.340 L -18.447,5.649 L -18.130,5.958 L -17.812,6.269 L -17.495,6.581 L -17.176,6.893 L -16.858,7.207 L -16.539,7.521 L -16.220,7.837 L -15.900,8.154 L -15.580,8.471 L -15.259,8.789 L -14.938,9.109 L -14.616,9.429 L -14.294,9.750 L -13.971,10.072 L -13.648,10.395 L -13.324,10.718 L -12.999,11.043 L -12.674,11.368 L -12.348,11.694 L -12.021,12.021 Z" fill="#1f5ea8" stroke="none"/>
    <path d="M 12.021,12.021 L 12.348,11.694 L 12.674,11.368 L 12.999,11.043 L 13.324,10.718 L 13.648,10.395 L 13.971,10.072 L 14.294,9.750 L 14.616,9.429 L 14.938,9.109 L 15.259,8.789 L 15.580,8.471 L 15.900,8.154 L 16.220,7.837 L 16.539,7.521 L 16.858,7.207 L 17.176,6.893 L 17.495,6.581 L 17.812,6.269 L 18.130,5.958 L 18.447,5.649 L 18.764,5.340 L 19.081,5.033 L 19.397,4.726 L 19.714,4.421 L 20.030,4.117 L 20.346,3.814 L 20.662,3.512 L 20.978,3.211 L 21.294,2.911 L 21.610,2.613 L 21.925,2.316 L 22.241,2.020 L 22.557,1.725 L 22.873,1.431 L 23.188,1.139 L 23.504,0.848 L 23.820,0.558 L 24.136,0.269 L 24.453,-0.018 L 24.769,-0.304 L 25.086,-0.588 L 25.403,-0.871 L 25.720,-1.153 L 26.037,-1.434 L 26.354,-1.713 L 26.672,-1.990 L 26.990,-2.266 L 27.309,-2.541 L 27.627,-2.814 L 27.946,-3.086 L 28.266,-3.356 L 28.586,-3.624 L 28.906,-3.891 L 29.226,-4.157 L 29.547,-4.421 L 29.869,-4.683 L 30.191,-4.943 L 30.513,-5.202 L 30.836,-5.460 L 31.159,-5.715 L 31.483,-5.969 L 31.808,-6.221 L 32.133,-6.471 L 32.458,-6.720 L 32.784,-6.967 L 33.111,-7.212 L 33.438,-7.455 L 33.766,-7.696 L 34.094,-7.935 L 34.423,-8.172 L 34.753,-8.408 L 35.083,-8.641 L 35.414,-8.873 L 35.746,-9.102 L 36.078,-9.329 L 36.411,-9.555 L 36.745,-9.778 L 37.079,-9.999 L 37.415,-10.218 L 37.750,-10.435 L 38.087,-10.649 L 38.424,-10.861 L 38.762,-11.071 L 39.101,-11.279 L 39.440,-11.485 L 39.780,-11.688 L 40.121,-11.889 L 40.463,-12.087 L 40.805,-12.283 L 41.148,-12.476 L 41.492,-12.667 L 41.837,-12.856 L 42.182,-13.041 L 42.528,-13.225 L 42.875,-13.405 L 43.223,-13.583 L 43.571,-13.759 L 43.920,-13.931 L 44.270,-14.101 L 44.620,-14.268 L 44.972,-14.433 L 45.324,-14.594 L 45.676,-14.753 L 46.030,-14.908 L 46.384,-15.061 L 46.738,-15.211 L 47.094,-15.358 L 47.450,-15.501 L 47.806,-15.642 L 48.163,-15.779 L 48.521,-15.914 L 48.880,-16.045 L 49.239,-16.173 L 49.598,-16.297 L 49.959,-16.419 L 50.319,-16.537 L 50.680,-16.651 L 51.042,-16.763 L 51.404,-16.871 L 51.767,-16.975 L 52.130,-17.076 L 52.493,-17.173 L 52.857,-17.267 L 53.221,-17.357 L 53.586,-17.443 L 53.950,-17.526 L 54.315,-17.605 L 54.681,-17.681 L 55.046,-17.752 L 55.411,-17.820 L 55.777,-17.884 L 56.143,-17.944 L 56.509,-18.000 L 56.875,-18.052 L 57.240,-18.100 L 57.606,-18.144 L 57.972,-18.184 L 58.337,-18.220 L 58.703,-18.251 L 59.068,-18.279 L 59.433,-18.302 L 59.797,-18.321 L 60.161,-18.336 L 60.525,-18.347 L 60.888,-18.353 L 61.251,-18.355 L 61.613,-18.353 L 61.974,-18.346 L 62.335,-18.335 L 62.695,-18.320 L 63.054,-18.300 L 63.412,-18.275 L 63.770,-18.246 L 64.126,-18.212 L 64.482,-18.174 L 64.836,-18.132 L 65.189,-18.085 L 65.541,-18.033 L 65.891,-17.976 L 66.240,-17.915 L 66.588,-17.850 L 66.934,-17.779 L 67.279,-17.704 L 67.622,-17.625 L 67.963,-17.540 L 68.302,-17.452 L 68.640,-17.358 L 68.976,-17.260 L 69.309,-17.157 L 69.640,-17.049 L 69.970,-16.936 L 70.297,-16.819 L 70.621,-16.698 L 70.944,-16.571 L 71.263,-16.440 L 71.580,-16.305 L 71.895,-16.164 L 72.206,-16.020 L 72.515,-15.870 L 72.821,-15.716 L 73.124,-15.557 L 73.424,-15.394 L 73.721,-15.227 L 74.015,-15.055 L 74.305,-14.878 L 74.592,-14.697 L 74.875,-14.512 L 75.155,-14.322 L 75.431,-14.128 L 75.703,-13.930 L 75.972,-13.727 L 76.236,-13.520 L 76.497,-13.310 L 76.753,-13.095 L 77.006,-12.876 L 77.254,-12.653 L 77.498,-12.426 L 77.738,-12.195 L 77.973,-11.960 L 78.203,-11.722 L 78.429,-11.480 L 78.651,-11.234 L 78.867,-10.984 L 79.079,-10.732 L 79.286,-10.475 L 79.488,-10.216 L 79.684,-9.953 L 79.876,-9.686 L 80.063,-9.417 L 80.244,-9.145 L 80.420,-8.869 L 80.591,-8.591 L 80.756,-8.310 L 80.916,-8.026 L 81.070,-7.740 L 81.218,-7.451 L 81.361,-7.159 L 81.499,-6.865 L 81.630,-6.569 L 81.756,-6.271 L 81.876,-5.971 L 81.990,-5.668 L 82.098,-5.364 L 82.200,-5.058 L 82.296,-4.750 L 82.387,-4.441 L 82.471,-4.130 L 82.549,-3.817 L 82.620,-3.504 L 82.686,-3.189 L 82.746,-2.873 L 82.799,-2.556 L 82.846,-2.239 L 82.887,-1.920 L 82.921,-1.601 L 82.950,-1.282 L 82.972,-0.962 L 82.987,-0.641 L 82.997,-0.321 L 83.000,0.000 L 82.997,0.321 L 82.987,0.641 L 82.972,0.962 L 82.950,1.282 L 82.921,1.601 L 82.887,1.920 L 82.846,2.239 L 82.799,2.556 L 82.746,2.873 L 82.686,3.189 L 82.620,3.504 L 82.549,3.817 L 82.471,4.130 L 82.387,4.441 L 82.296,4.750 L 82.200,5.058 L 82.098,5.364 L 81.990,5.668 L 81.876,5.971 L 81.756,6.271 L 81.630,6.569 L 81.499,6.865 L 81.361,7.159 L 81.218,7.451 L 81.070,7.740 L 80.916,8.026 L 80.756,8.310 L 80.591,8.591 L 80.420,8.869 L 80.244,9.145 L 80.063,9.417 L 79.876,9.686 L 79.684,9.953 L 79.488,10.216 L 79.286,10.475 L 79.079,10.732 L 78.867,10.984 L 78.651,11.234 L 78.429,11.480 L 78.203,11.722 L 77.973,11.960 L 77.738,12.195 L 77.498,12.426 L 77.254,12.653 L 77.006,12.876 L 76.753,13.095 L 76.497,13.310 L 76.236,13.520 L 75.972,13.727 L 75.703,13.930 L 75.431,14.128 L 75.155,14.322 L 74.875,14.512 L 74.592,14.697 L 74.305,14.878 L 74.015,15.055 L 73.721,15.227 L 73.424,15.394 L 73.124,15.557 L 72.821,15.716 L 72.515,15.870 L 72.206,16.020 L 71.895,16.164 L 71.580,16.305 L 71.263,16.440 L 70.944,16.571 L 70.621,16.698 L 70.297,16.819 L 69.970,16.936 L 69.640,17.049 L 69.309,17.157 L 68.976,17.260 L 68.640,17.358 L 68.302,17.452 L 67.963,17.540 L 67.622,17.625 L 67.279,17.704 L 66.934,17.779 L 66.588,17.850 L 66.240,17.915 L 65.891,17.976 L 65.541,18.033 L 65.189,18.085 L 64.836,18.132 L 64.482,18.174 L 64.126,18.212 L 63.770,18.246 L 63.412,18.275 L 63.054,18.300 L 62.695,18.320 L 62.335,18.335 L 61.974,18.346 L 61.613,18.353 L 61.251,18.355 L 60.888,18.353 L 60.525,18.347 L 60.161,18.336 L 59.797,18.321 L 59.433,18.302 L 59.068,18.279 L 58.703,18.251 L 58.337,18.220 L 57.972,18.184 L 57.606,18.144 L 57.240,18.100 L 56.875,18.052 L 56.509,18.000 L 56.143,17.944 L 55.777,17.884 L 55.411,17.820 L 55.046,17.752 L 54.681,17.681 L 54.315,17.605 L 53.950,17.526 L 53.586,17.443 L 53.221,17.357 L 52.857,17.267 L 52.493,17.173 L 52.130,17.076 L 51.767,16.975 L 51.404,16.871 L 51.042,16.763 L 50.680,16.651 L 50.319,16.537 L 49.959,16.419 L 49.598,16.297 L 49.239,16.173 L 48.880,16.045 L 48.521,15.914 L 48.163,15.779 L 47.806,15.642 L 47.450,15.501 L 47.094,15.358 L 46.738,15.211 L 46.384,15.061 L 46.030,14.908 L 45.676,14.753 L 45.324,14.594 L 44.972,14.433 L 44.620,14.268 L 44.270,14.101 L 43.920,13.931 L 43.571,13.759 L 43.223,13.583 L 42.875,13.405 L 42.528,13.225 L 42.182,13.041 L 41.837,12.856 L 41.492,12.667 L 41.148,12.476 L 40.805,12.283 L 40.463,12.087 L 40.121,11.889 L 39.780,11.688 L 39.440,11.485 L 39.101,11.279 L 38.762,11.071 L 38.424,10.861 L 38.087,10.649 L 37.750,10.435 L 37.415,10.218 L 37.079,9.999 L 36.745,9.778 L 36.411,9.555 L 36.078,9.329 L 35.746,9.102 L 35.414,8.873 L 35.083,8.641 L 34.753,8.408 L 34.423,8.172 L 34.094,7.935 L 33.766,7.696 L 33.438,7.455 L 33.111,7.212 L 32.784,6.967 L 32.458,6.720 L 32.133,6.471 L 31.808,6.221 L 31.483,5.969 L 31.159,5.715 L 30.836,5.460 L 30.513,5.202 L 30.191,4.943 L 29.869,4.683 L 29.547,4.421 L 29.226,4.157 L 28.906,3.891 L 28.586,3.624 L 28.266,3.356 L 27.946,3.086 L 27.627,2.814 L 27.309,2.541 L 26.990,2.266 L 26.672,1.990 L 26.354,1.713 L 26.037,1.434 L 25.720,1.153 L 25.403,0.871 L 25.086,0.588 L 24.769,0.304 L 24.453,0.018 L 24.136,-0.269 L 23.820,-0.558 L 23.504,-0.848 L 23.188,-1.139 L 22.873,-1.431 L 22.557,-1.725 L 22.241,-2.020 L 21.925,-2.316 L 21.610,-2.613 L 21.294,-2.911 L 20.978,-3.211 L 20.662,-3.512 L 20.346,-3.814 L 20.030,-4.117 L 19.714,-4.421 L 19.397,-4.726 L 19.081,-5.033 L 18.764,-5.340 L 18.447,-5.649 L 18.130,-5.958 L 17.812,-6.269 L 17.495,-6.581 L 17.176,-6.893 L 16.858,-7.207 L 16.539,-7.521 L 16.220,-7.837 L 15.900,-8.154 L 15.580,-8.471 L 15.259,-8.789 L 14.938,-9.109 L 14.616,-9.429 L 14.294,-9.750 L 13.971,-10.072 L 13.648,-10.395 L 13.324,-10.718 L 12.999,-11.043 L 12.674,-11.368 L 12.348,-11.694 L 12.021,-12.021 L -12.021,12.021 L -11.693,12.349 L -11.365,12.677 L -11.035,13.006 L -10.705,13.336 L -10.374,13.667 L -10.042,13.998 L -9.709,14.330 L -9.376,14.662 L -9.041,14.996 L -8.705,15.330 L -8.368,15.664 L -8.030,15.999 L -7.691,16.335 L -7.350,16.672 L -7.009,17.008 L -6.666,17.346 L -6.322,17.684 L -5.977,18.022 L -5.630,18.361 L -5.282,18.701 L -4.933,19.041 L -4.582,19.381 L -4.230,19.722 L -3.877,20.063 L -3.522,20.405 L -3.165,20.747 L -2.807,21.089 L -2.447,21.432 L -2.085,21.775 L -1.722,22.118 L -1.357,22.462 L -0.991,22.806 L -0.622,23.150 L -0.252,23.494 L 0.120,23.838 L 0.494,24.183 L 0.870,24.528 L 1.248,24.873 L 1.628,25.218 L 2.010,25.563 L 2.394,25.908 L 2.780,26.253 L 3.168,26.598 L 3.558,26.943 L 3.951,27.288 L 4.346,27.633 L 4.743,27.977 L 5.143,28.322 L 5.544,28.666 L 5.949,29.011 L 6.355,29.355 L 6.765,29.698 L 7.176,30.042 L 7.591,30.385 L 8.008,30.727 L 8.427,31.069 L 8.849,31.411 L 9.274,31.753 L 9.702,32.093 L 10.133,32.434 L 10.566,32.773 L 11.002,33.112 L 11.441,33.450 L 11.883,33.788 L 12.329,34.125 L 12.777,34.461 L 13.228,34.796 L 13.682,35.130 L 14.140,35.464 L 14.601,35.796 L 15.065,36.127 L 15.532,36.457 L 16.002,36.786 L 16.476,37.114 L 16.954,37.441 L 17.434,37.766 L 17.919,38.090 L 18.406,38.412 L 18.898,38.733 L 19.393,39.053 L 19.891,39.370 L 20.393,39.687 L 20.899,40.001 L 21.409,40.314 L 21.922,40.624 L 22.440,40.933 L 22.961,41.240 L 23.486,41.545 L 24.015,41.847 L 24.547,42.148 L 25.084,42.446 L 25.625,42.742 L 26.170,43.035 L 26.719,43.326 L 27.272,43.614 L 27.830,43.899 L 28.391,44.182 L 28.957,44.462 L 29.527,44.739 L 30.101,45.012 L 30.680,45.283 L 31.263,45.550 L 31.850,45.814 L 32.442,46.075 L 33.038,46.332 L 33.638,46.586 L 34.243,46.835 L 34.852,47.081 L 35.466,47.323 L 36.084,47.561 L 36.707,47.795 L 37.334,48.024 L 37.965,48.249 L 38.602,48.470 L 39.242,48.686 L 39.888,48.897 L 40.537,49.103 L 41.192,49.305 L 41.851,49.501 L 42.514,49.692 L 43.182,49.877 L 43.854,50.057 L 44.531,50.232 L 45.213,50.400 L 45.898,50.563 L 46.589,50.720 L 47.283,50.870 L 47.983,51.014 L 48.686,51.152 L 49.394,51.283 L 50.106,51.407 L 50.822,51.525 L 51.543,51.635 L 52.267,51.738 L 52.996,51.834 L 53.729,51.922 L 54.466,52.002 L 55.207,52.075 L 55.952,52.140 L 56.700,52.196 L 57.453,52.245 L 58.209,52.284 L 58.968,52.315 L 59.731,52.338 L 60.498,52.351 L 61.267,52.355 L 62.040,52.350 L 62.816,52.336 L 63.595,52.312 L 64.377,52.278 L 65.162,52.234 L 65.949,52.180 L 66.739,52.116 L 67.531,52.042 L 68.325,51.956 L 69.121,51.861 L 69.919,51.754 L 70.719,51.636 L 71.521,51.507 L 72.324,51.367 L 73.128,51.215 L 73.933,51.051 L 74.739,50.876 L 75.545,50.689 L 76.352,50.489 L 77.159,50.278 L 77.967,50.054 L 78.774,49.817 L 79.580,49.568 L 80.386,49.306 L 81.191,49.031 L 81.995,48.744 L 82.797,48.443 L 83.598,48.129 L 84.396,47.801 L 85.193,47.461 L 85.987,47.106 L 86.778,46.739 L 87.567,46.357 L 88.351,45.962 L 89.133,45.553 L 89.910,45.130 L 90.683,44.694 L 91.451,44.243 L 92.215,43.778 L 92.973,43.300 L 93.726,42.807 L 94.473,42.301 L 95.213,41.780 L 95.948,41.246 L 96.675,40.697 L 97.395,40.135 L 98.107,39.558 L 98.812,38.968 L 99.508,38.364 L 100.196,37.746 L 100.875,37.114 L 101.544,36.469 L 102.204,35.811 L 102.853,35.139 L 103.493,34.454 L 104.121,33.756 L 104.739,33.045 L 105.345,32.321 L 105.939,31.585 L 106.521,30.836 L 107.091,30.075 L 107.647,29.302 L 108.191,28.517 L 108.721,27.720 L 109.237,26.913 L 109.740,26.094 L 110.227,25.264 L 110.700,24.424 L 111.158,23.573 L 111.601,22.713 L 112.027,21.843 L 112.438,20.963 L 112.833,20.075 L 113.211,19.177 L 113.573,18.272 L 113.917,17.358 L 114.244,16.437 L 114.554,15.509 L 114.846,14.573 L 115.121,13.632 L 115.377,12.684 L 115.615,11.730 L 115.835,10.772 L 116.036,9.808 L 116.218,8.840 L 116.381,7.868 L 116.526,6.892 L 116.651,5.913 L 116.758,4.932 L 116.845,3.948 L 116.913,2.963 L 116.961,1.976 L 116.990,0.988 L 117.000,0.000 L 116.990,-0.988 L 116.961,-1.976 L 116.913,-2.963 L 116.845,-3.948 L 116.758,-4.932 L 116.651,-5.913 L 116.526,-6.892 L 116.381,-7.868 L 116.218,-8.840 L 116.036,-9.808 L 115.835,-10.772 L 115.615,-11.730 L 115.377,-12.684 L 115.121,-13.632 L 114.846,-14.573 L 114.554,-15.509 L 114.244,-16.437 L 113.917,-17.358 L 113.573,-18.272 L 113.211,-19.177 L 112.833,-20.075 L 112.438,-20.963 L 112.027,-21.843 L 111.601,-22.713 L 111.158,-23.573 L 110.700,-24.424 L 110.227,-25.264 L 109.740,-26.094 L 109.237,-26.913 L 108.721,-27.720 L 108.191,-28.517 L 107.647,-29.302 L 107.091,-30.075 L 106.521,-30.836 L 105.939,-31.585 L 105.345,-32.321 L 104.739,-33.045 L 104.121,-33.756 L 103.493,-34.454 L 102.853,-35.139 L 102.204,-35.811 L 101.544,-36.469 L 100.875,-37.114 L 100.196,-37.746 L 99.508,-38.364 L 98.812,-38.968 L 98.107,-39.558 L 97.395,-40.135 L 96.675,-40.697 L 95.948,-41.246 L 95.213,-41.780 L 94.473,-42.301 L 93.726,-42.807 L 92.973,-43.300 L 92.215,-43.778 L 91.451,-44.243 L 90.683,-44.694 L 89.910,-45.130 L 89.133,-45.553 L 88.351,-45.962 L 87.567,-46.357 L 86.778,-46.739 L 85.987,-47.106 L 85.193,-47.461 L 84.396,-47.801 L 83.598,-48.129 L 82.797,-48.443 L 81.995,-48.744 L 81.191,-49.031 L 80.386,-49.306 L 79.580,-49.568 L 78.774,-49.817 L 77.967,-50.054 L 77.159,-50.278 L 76.352,-50.489 L 75.545,-50.689 L 74.739,-50.876 L 73.933,-51.051 L 73.128,-51.215 L 72.324,-51.367 L 71.521,-51.507 L 70.719,-51.636 L 69.919,-51.754 L 69.121,-51.861 L 68.325,-51.956 L 67.531,-52.042 L 66.739,-52.116 L 65.949,-52.180 L 65.162,-52.234 L 64.377,-52.278 L 63.595,-52.312 L 62.816,-52.336 L 62.040,-52.350 L 61.267,-52.355 L 60.498,-52.351 L 59.731,-52.338 L 58.968,-52.315 L 58.209,-52.284 L 57.453,-52.245 L 56.700,-52.196 L 55.952,-52.140 L 55.207,-52.075 L 54.466,-52.002 L 53.729,-51.922 L 52.996,-51.834 L 52.267,-51.738 L 51.543,-51.635 L 50.822,-51.525 L 50.106,-51.407 L 49.394,-51.283 L 48.686,-51.152 L 47.983,-51.014 L 47.283,-50.870 L 46.589,-50.720 L 45.898,-50.563 L 45.213,-50.400 L 44.531,-50.232 L 43.854,-50.057 L 43.182,-49.877 L 42.514,-49.692 L 41.851,-49.501 L 41.192,-49.305 L 40.537,-49.103 L 39.888,-48.897 L 39.242,-48.686 L 38.602,-48.470 L 37.965,-48.249 L 37.334,-48.024 L 36.707,-47.795 L 36.084,-47.561 L 35.466,-47.323 L 34.852,-47.081 L 34.243,-46.835 L 33.638,-46.586 L 33.038,-46.332 L 32.442,-46.075 L 31.850,-45.814 L 31.263,-45.550 L 30.680,-45.283 L 30.101,-45.012 L 29.527,-44.739 L 28.957,-44.462 L 28.391,-44.182 L 27.830,-43.899 L 27.272,-43.614 L 26.719,-43.326 L 26.170,-43.035 L 25.625,-42.742 L 25.084,-42.446 L 24.547,-42.148 L 24.015,-41.847 L 23.486,-41.545 L 22.961,-41.240 L 22.440,-40.933 L 21.922,-40.624 L 21.409,-40.314 L 20.899,-40.001 L 20.393,-39.687 L 19.891,-39.370 L 19.393,-39.053 L 18.898,-38.733 L 18.406,-38.412 L 17.919,-38.090 L 17.434,-37.766 L 16.954,-37.441 L 16.476,-37.114 L 16.002,-36.786 L 15.532,-36.457 L 15.065,-36.127 L 14.601,-35.796 L 14.140,-35.464 L 13.682,-35.130 L 13.228,-34.796 L 12.777,-34.461 L 12.329,-34.125 L 11.883,-33.788 L 11.441,-33.450 L 11.002,-33.112 L 10.566,-32.773 L 10.133,-32.434 L 9.702,-32.093 L 9.274,-31.753 L 8.849,-31.411 L 8.427,-31.069 L 8.008,-30.727 L 7.591,-30.385 L 7.176,-30.042 L 6.765,-29.698 L 6.355,-29.355 L 5.949,-29.011 L 5.544,-28.666 L 5.143,-28.322 L 4.743,-27.977 L 4.346,-27.633 L 3.951,-27.288 L 3.558,-26.943 L 3.168,-26.598 L 2.780,-26.253 L 2.394,-25.908 L 2.010,-25.563 L 1.628,-25.218 L 1.248,-24.873 L 0.870,-24.528 L 0.494,-24.183 L 0.120,-23.838 L -0.252,-23.494 L -0.622,-23.150 L -0.991,-22.806 L -1.357,-22.462 L -1.722,-22.118 L -2.085,-21.775 L -2.447,-21.432 L -2.807,-21.089 L -3.165,-20.747 L -3.522,-20.405 L -3.877,-20.063 L -4.230,-19.722 L -4.582,-19.381 L -4.933,-19.041 L -5.282,-18.701 L -5.630,-18.361 L -5.977,-18.022 L -6.322,-17.684 L -6.666,-17.346 L -7.009,-17.008 L -7.350,-16.672 L -7.691,-16.335 L -8.030,-15.999 L -8.368,-15.664 L -8.705,-15.330 L -9.041,-14.996 L -9.376,-14.662 L -9.709,-14.330 L -10.042,-13.998 L -10.374,-13.667 L -10.705,-13.336 L -11.035,-13.006 L -11.365,-12.677 L -11.693,-12.349 L -12.021,-12.021 Z" fill="#f47b20" stroke="none"/>
    <path d="M -10,-10 L 10,10 M -10,10 L 10,-10" stroke="#ffffff" stroke-width="9"
          stroke-linecap="round" opacity="0.95"/>
  </g>
</svg>